<mxfile host="app.diagrams.net" modified="2023-10-08T14:37:06.988Z" agent="Mozilla/5.0 (Macintosh; Intel Mac OS X 10_15_7) AppleWebKit/537.36 (KHTML, like Gecko) Chrome/117.0.0.0 Safari/537.36" etag="3fA0z579VFGyy19_gq_x" version="22.0.4" type="device">
  <diagram name="Page-1" id="GM8GQWi1gXaJQJtoQk44">
    <mxGraphModel dx="1242" dy="751" grid="1" gridSize="10" guides="1" tooltips="1" connect="1" arrows="1" fold="1" page="1" pageScale="1" pageWidth="850" pageHeight="1100" math="0" shadow="0">
      <root>
        <mxCell id="0" />
        <mxCell id="1" parent="0" />
        <mxCell id="zlYr1jjFoQZGAXg7nRLq-1" value="Private subnet" style="points=[[0,0],[0.25,0],[0.5,0],[0.75,0],[1,0],[1,0.25],[1,0.5],[1,0.75],[1,1],[0.75,1],[0.5,1],[0.25,1],[0,1],[0,0.75],[0,0.5],[0,0.25]];outlineConnect=0;gradientColor=none;html=1;whiteSpace=wrap;fontSize=12;fontStyle=0;container=1;pointerEvents=0;collapsible=0;recursiveResize=0;shape=mxgraph.aws4.group;grIcon=mxgraph.aws4.group_security_group;grStroke=0;strokeColor=#147EBA;fillColor=#E6F2F8;verticalAlign=top;align=left;spacingLeft=30;fontColor=#147EBA;dashed=0;" vertex="1" parent="1">
          <mxGeometry x="180" y="485" width="460" height="215" as="geometry" />
        </mxCell>
        <mxCell id="zlYr1jjFoQZGAXg7nRLq-20" value="AutoScaling" style="fillColor=none;strokeColor=#5A6C86;verticalAlign=top;fontStyle=0;fontColor=#5A6C86;whiteSpace=wrap;html=1;rounded=0;glass=1;strokeWidth=2;" vertex="1" parent="zlYr1jjFoQZGAXg7nRLq-1">
          <mxGeometry x="20" y="44" width="342" height="136" as="geometry" />
        </mxCell>
        <mxCell id="zlYr1jjFoQZGAXg7nRLq-3" value="" style="sketch=0;points=[[0,0,0],[0.25,0,0],[0.5,0,0],[0.75,0,0],[1,0,0],[0,1,0],[0.25,1,0],[0.5,1,0],[0.75,1,0],[1,1,0],[0,0.25,0],[0,0.5,0],[0,0.75,0],[1,0.25,0],[1,0.5,0],[1,0.75,0]];outlineConnect=0;fontColor=#232F3E;fillColor=#ED7100;strokeColor=#ffffff;dashed=0;verticalLabelPosition=bottom;verticalAlign=top;align=center;html=1;fontSize=12;fontStyle=0;aspect=fixed;shape=mxgraph.aws4.resourceIcon;resIcon=mxgraph.aws4.auto_scaling2;" vertex="1" parent="zlYr1jjFoQZGAXg7nRLq-1">
          <mxGeometry x="20" y="44" width="78" height="78" as="geometry" />
        </mxCell>
        <mxCell id="zlYr1jjFoQZGAXg7nRLq-4" value="Evernode Host" style="outlineConnect=0;dashed=0;verticalLabelPosition=bottom;verticalAlign=top;align=center;html=1;shape=mxgraph.aws3.ec2;fillColor=#F58534;gradientColor=none;" vertex="1" parent="zlYr1jjFoQZGAXg7nRLq-1">
          <mxGeometry x="233" y="66" width="76.5" height="92" as="geometry" />
        </mxCell>
        <mxCell id="zlYr1jjFoQZGAXg7nRLq-2" value="Public subnet" style="points=[[0,0],[0.25,0],[0.5,0],[0.75,0],[1,0],[1,0.25],[1,0.5],[1,0.75],[1,1],[0.75,1],[0.5,1],[0.25,1],[0,1],[0,0.75],[0,0.5],[0,0.25]];outlineConnect=0;gradientColor=none;html=1;whiteSpace=wrap;fontSize=12;fontStyle=0;container=1;pointerEvents=0;collapsible=0;recursiveResize=0;shape=mxgraph.aws4.group;grIcon=mxgraph.aws4.group_security_group;grStroke=0;strokeColor=#248814;fillColor=#E9F3E6;verticalAlign=top;align=left;spacingLeft=30;fontColor=#248814;dashed=0;" vertex="1" parent="1">
          <mxGeometry x="210" y="270" width="330" height="150" as="geometry" />
        </mxCell>
        <mxCell id="zlYr1jjFoQZGAXg7nRLq-7" value="Elastic Load Balancing" style="sketch=0;outlineConnect=0;fontColor=#232F3E;gradientColor=none;strokeColor=#ffffff;fillColor=#232F3E;dashed=0;verticalLabelPosition=middle;verticalAlign=bottom;align=center;html=1;whiteSpace=wrap;fontSize=10;fontStyle=1;spacing=3;shape=mxgraph.aws4.productIcon;prIcon=mxgraph.aws4.elastic_load_balancing;" vertex="1" parent="zlYr1jjFoQZGAXg7nRLq-2">
          <mxGeometry x="105" y="40" width="70" height="100" as="geometry" />
        </mxCell>
        <mxCell id="zlYr1jjFoQZGAXg7nRLq-9" value="Bastion Host" style="outlineConnect=0;dashed=0;verticalLabelPosition=bottom;verticalAlign=top;align=center;html=1;shape=mxgraph.aws3.ec2;fillColor=#F58534;gradientColor=none;" vertex="1" parent="zlYr1jjFoQZGAXg7nRLq-2">
          <mxGeometry x="260" y="10" width="60" height="70" as="geometry" />
        </mxCell>
        <mxCell id="zlYr1jjFoQZGAXg7nRLq-8" style="edgeStyle=orthogonalEdgeStyle;rounded=0;orthogonalLoop=1;jettySize=auto;html=1;" edge="1" parent="1" source="zlYr1jjFoQZGAXg7nRLq-7" target="zlYr1jjFoQZGAXg7nRLq-4">
          <mxGeometry relative="1" as="geometry">
            <Array as="points">
              <mxPoint x="330" y="575" />
            </Array>
          </mxGeometry>
        </mxCell>
        <mxCell id="zlYr1jjFoQZGAXg7nRLq-10" style="edgeStyle=orthogonalEdgeStyle;rounded=0;orthogonalLoop=1;jettySize=auto;html=1;" edge="1" parent="1" source="zlYr1jjFoQZGAXg7nRLq-9" target="zlYr1jjFoQZGAXg7nRLq-4">
          <mxGeometry relative="1" as="geometry">
            <Array as="points">
              <mxPoint x="500" y="561" />
            </Array>
          </mxGeometry>
        </mxCell>
        <mxCell id="zlYr1jjFoQZGAXg7nRLq-11" value="SSH Management" style="edgeLabel;html=1;align=center;verticalAlign=middle;resizable=0;points=[];" vertex="1" connectable="0" parent="zlYr1jjFoQZGAXg7nRLq-10">
          <mxGeometry x="-0.1269" y="1" relative="1" as="geometry">
            <mxPoint as="offset" />
          </mxGeometry>
        </mxCell>
        <mxCell id="zlYr1jjFoQZGAXg7nRLq-13" style="edgeStyle=orthogonalEdgeStyle;rounded=0;orthogonalLoop=1;jettySize=auto;html=1;" edge="1" parent="1" source="zlYr1jjFoQZGAXg7nRLq-12" target="zlYr1jjFoQZGAXg7nRLq-7">
          <mxGeometry relative="1" as="geometry" />
        </mxCell>
        <mxCell id="zlYr1jjFoQZGAXg7nRLq-12" value="Amazon Route 53" style="sketch=0;outlineConnect=0;fontColor=#232F3E;gradientColor=none;strokeColor=#ffffff;fillColor=#232F3E;dashed=0;verticalLabelPosition=middle;verticalAlign=bottom;align=center;html=1;whiteSpace=wrap;fontSize=10;fontStyle=1;spacing=3;shape=mxgraph.aws4.productIcon;prIcon=mxgraph.aws4.route_53;" vertex="1" parent="1">
          <mxGeometry x="310" y="140" width="80" height="110" as="geometry" />
        </mxCell>
        <mxCell id="zlYr1jjFoQZGAXg7nRLq-16" style="edgeStyle=orthogonalEdgeStyle;rounded=0;orthogonalLoop=1;jettySize=auto;html=1;" edge="1" parent="1" source="zlYr1jjFoQZGAXg7nRLq-15" target="zlYr1jjFoQZGAXg7nRLq-12">
          <mxGeometry relative="1" as="geometry" />
        </mxCell>
        <mxCell id="zlYr1jjFoQZGAXg7nRLq-15" value="Users" style="outlineConnect=0;dashed=0;verticalLabelPosition=bottom;verticalAlign=top;align=center;html=1;shape=mxgraph.aws3.internet_3;fillColor=#D2D3D3;gradientColor=none;" vertex="1" parent="1">
          <mxGeometry x="310" y="40" width="79.5" height="54" as="geometry" />
        </mxCell>
        <mxCell id="zlYr1jjFoQZGAXg7nRLq-18" style="edgeStyle=orthogonalEdgeStyle;rounded=0;orthogonalLoop=1;jettySize=auto;html=1;" edge="1" parent="1" source="zlYr1jjFoQZGAXg7nRLq-17" target="zlYr1jjFoQZGAXg7nRLq-9">
          <mxGeometry relative="1" as="geometry">
            <Array as="points">
              <mxPoint x="550" y="335" />
              <mxPoint x="550" y="335" />
            </Array>
          </mxGeometry>
        </mxCell>
        <mxCell id="zlYr1jjFoQZGAXg7nRLq-17" value="Evernode Admin/Provider" style="sketch=0;aspect=fixed;pointerEvents=1;shadow=0;dashed=0;html=1;strokeColor=none;labelPosition=center;verticalLabelPosition=bottom;verticalAlign=top;align=center;shape=mxgraph.mscae.enterprise.user_permissions;fillColor=#0078D7;" vertex="1" parent="1">
          <mxGeometry x="630" y="310" width="47" height="50" as="geometry" />
        </mxCell>
      </root>
    </mxGraphModel>
  </diagram>
</mxfile>
